<?xml version="1.0" encoding="UTF-8" standalone="no"?>
<!DOCTYPE svg PUBLIC "-//W3C//DTD SVG 1.1//EN" "http://www.w3.org/Graphics/SVG/1.1/DTD/svg11.dtd">
<svg width="100%" height="100%" viewBox="0 0 478 478" version="1.1" xmlns="http://www.w3.org/2000/svg" xmlns:xlink="http://www.w3.org/1999/xlink" xml:space="preserve" xmlns:serif="http://www.serif.com/" style="fill-rule:evenodd;clip-rule:evenodd;stroke-linejoin:round;stroke-miterlimit:2;">
    <g>
        <g>
            <path d="M187.722,102.856L187.722,17.062C187.719,7.636 180.076,-0.003 170.65,0C165.816,0.001 161.21,2.053 157.974,5.644L4.375,176.311C-1.242,182.567 -1.467,191.981 3.846,198.498L157.446,386.231C163.414,393.526 174.166,394.602 181.462,388.634C185.414,385.401 187.711,380.568 187.722,375.462L187.722,290.419C322.549,294.805 406.687,352.439 444.61,466.206C446.936,473.166 453.451,477.859 460.789,477.862C461.709,477.865 462.629,477.79 463.537,477.64C471.793,476.293 477.856,469.161 477.856,460.795C477.855,259.818 356.87,112.174 187.722,102.856Z" style="fill:rgb(16,112,202);fill-rule:nonzero;"/>
        </g>
    </g>
</svg>
