<?xml version="1.0" encoding="UTF-8" standalone="no"?>
<!DOCTYPE svg PUBLIC "-//W3C//DTD SVG 1.1//EN" "http://www.w3.org/Graphics/SVG/1.1/DTD/svg11.dtd">
<svg width="100%" height="100%" viewBox="0 0 512 512" version="1.1" xmlns="http://www.w3.org/2000/svg" xmlns:xlink="http://www.w3.org/1999/xlink" xml:space="preserve" xmlns:serif="http://www.serif.com/" style="fill-rule:evenodd;clip-rule:evenodd;stroke-linejoin:round;stroke-miterlimit:2;">
    <g transform="matrix(1.07082,0,0,1.09063,-18.629,-23.7027)">
        <g id="_x37_1-github">
            <g>
                <g>
                    <g>
                        <path d="M255.969,21.733C124.23,21.733 17.397,129.274 17.397,261.939C17.397,368.046 85.759,458.06 180.602,489.849C192.531,492.069 196.887,484.653 196.887,478.282C196.887,472.569 196.682,457.465 196.557,437.426C130.197,451.933 116.182,405.218 116.182,405.218C105.354,377.462 89.693,370.079 89.693,370.079C68.009,355.186 91.306,355.488 91.306,355.488C115.254,357.189 127.84,380.247 127.84,380.247C149.135,416.941 183.706,406.352 197.305,400.194C199.451,384.673 205.623,374.089 212.459,368.078C159.485,362.005 103.769,341.397 103.769,249.379C103.769,223.15 113.079,201.711 128.345,184.901C125.87,178.83 117.699,154.394 130.674,121.347C130.674,121.347 150.719,114.892 196.287,145.961C215.318,140.636 235.719,137.979 256.029,137.889C276.279,138.012 296.705,140.636 315.767,145.994C361.314,114.92 381.326,121.38 381.326,121.38C394.328,154.457 386.158,178.862 383.713,184.929C399.01,201.739 408.229,223.179 408.229,249.411C408.229,341.669 352.456,361.974 299.309,367.923C307.868,375.345 315.5,389.992 315.5,412.394C315.5,444.518 315.203,470.413 315.203,478.282C315.203,484.709 319.496,492.185 331.605,489.822C426.302,457.998 494.603,368.017 494.603,261.939C494.604,129.273 387.771,21.733 255.969,21.733Z" style="fill:rgb(16,112,202);fill-rule:nonzero;"/>
                    </g>
                </g>
            </g>
        </g>
    </g>
</svg>
