<?xml version="1.0" encoding="UTF-8" standalone="no"?>
<!DOCTYPE svg PUBLIC "-//W3C//DTD SVG 1.1//EN" "http://www.w3.org/Graphics/SVG/1.1/DTD/svg11.dtd">
<svg width="100%" height="100%" viewBox="0 0 128 128" version="1.1" xmlns="http://www.w3.org/2000/svg" xmlns:xlink="http://www.w3.org/1999/xlink" xml:space="preserve" xmlns:serif="http://www.serif.com/" style="fill-rule:evenodd;clip-rule:evenodd;stroke-miterlimit:10;">
    <path d="M45.368,60.328C55.205,60.328 59.358,54.925 59.358,50.075C59.358,46.2 59.63,30.821 59.63,26.94C59.63,14.199 67.944,8.796 79.72,8.796L82.631,8.796L82.631,16.416L80.137,16.416C71.959,16.416 68.771,20.428 68.771,27.907C68.771,31.094 68.641,44.949 68.641,48.693C68.782,57.559 62.128,61.992 55.892,63.65L55.892,63.932C62.128,65.454 68.782,70.164 68.641,79.03C68.641,82.769 68.771,95.789 68.771,99.111C68.771,106.871 72.377,111.584 80.137,111.584L82.631,111.584L82.631,119.203L79.72,119.203C68.221,119.203 59.63,114.217 59.63,100.224C59.63,96.485 59.358,81.381 59.358,77.643C59.358,73.35 55.205,67.395 45.368,67.395L45.368,60.328Z" style="fill:rgb(219,234,247);fill-rule:nonzero;stroke:rgb(219,234,247);stroke-width:2.68px;"/>
</svg>
